<?xml version="1.0" encoding="UTF-8"?>
<svg width="24px" height="24px" viewBox="0 0 24 24" version="1.1" xmlns="http://www.w3.org/2000/svg">
    <g stroke="none" stroke-width="1" fill="none" fill-rule="evenodd">
        <path d="M3,3 L21,3 C21.5522847,3 22,3.44771525 22,4 L22,20 C22,20.5522847 21.5522847,21 21,21 L3,21 C2.44771525,21 2,20.5522847 2,20 L2,4 C2,3.44771525 2.44771525,3 3,3 Z" fill="#E97627"/>
        <path d="M6,6 L18,6 C18.5522847,6 19,6.44771525 19,7 L19,17 C19,17.5522847 18.5522847,18 18,18 L6,18 C5.44771525,18 5,17.5522847 5,17 L5,7 C5,6.44771525 5.44771525,6 6,6 Z" fill="#FFFFFF"/>
        <path d="M8,8 L16,8 C16.5522847,8 17,8.44771525 17,9 L17,15 C17,15.5522847 16.5522847,16 16,16 L8,16 C7.44771525,16 7,15.5522847 7,15 L7,9 C7,8.44771525 7.44771525,8 8,8 Z" fill="#E97627"/>
    </g>
</svg> 